<svg id="SvgjsSvg1001" width="288" height="288" xmlns="http://www.w3.org/2000/svg" version="1.1" xmlns:xlink="http://www.w3.org/1999/xlink" xmlns:svgjs="http://svgjs.com/svgjs"><defs id="SvgjsDefs1002"></defs><g id="SvgjsG1008" transform="matrix(1,0,0,1,0,0)"><svg xmlns="http://www.w3.org/2000/svg" viewBox="0 0 512 512" width="288" height="288"><g data-name="Avatar Nurse Profession Hospital Health Mask" fill="#000000" class="color000 svgShape"><path fill="#68cfff" d="M366.496,164.1214c.95-14.72,5.4741-50.0422,8.9886-76.2779a38.8286,38.8286,0,0,0-28.2139-42.6489c-44.3415-12.0714-113.4627-20.7857-183.155-.413A38.9077,38.9077,0,0,0,136.4405,87.285c3.5249,26.2906,8.1071,62.0114,9.0635,76.8364C145.5105,164.2216,140.7593,164.1214,366.496,164.1214Z" class="colordaeef7 svgShape"></path><path fill="#3d3c3b" d="M399.6349,211.154C399.6349,368.2,335.3273,350.6588,256,350.6588S112.3651,368.2,112.3651,211.154c0-77.0464,64.3076-120.7858,143.6349-120.7858S399.6349,134.1076,399.6349,211.154Z" class="color3d3c3b svgShape"></path><path fill="#68cfff" d="M126.8681,361.4065A30,30,0,0,0,98.745,391.3477v40.65c0,17.3687,3.5052,25.504,31.451,31.451,0,0,94.0823,16.5509,125.804,16.5509s125.804-16.5509,125.804-16.5509c27.9458-5.947,31.451-14.0823,31.451-31.451V391.3473a30,30,0,0,0-28.1228-29.9411l-129.1175-8.0955Z" class="colordaeef7 svgShape"></path><path fill="#383980" d="M303.18,353.37l-.0034-22.0151h-94.353V353.37c0,30.63,16.5465,61.25,47.1765,126.6C286.63,414.62,303.18,384,303.18,353.37Z" class="colora9a9db svgShape"></path><path fill="#eaf5fb" d="M167.3208,389.7076c6.4054-10.8935,23.9346-29.0729,41.5027-36.337,0,30.6294,16.5448,61.2471,47.1765,126.5957l-.042.0335c-11.0609-.0052-29.67-2.0144-49.2292-4.6307-10.6292-20.7861-25.3179-47.5624-25.3179-53.9177-.2917-5.4514,7.24-8.2825,16.3115-13.6084l-26.729-8.5754A6.5609,6.5609,0,0,1,167.3208,389.7076Z" class="coloreaf5fb svgShape"></path><path fill="#eaf5fb" d="M344.6792,389.7076c-6.4054-10.8935-23.9346-29.0729-41.5027-36.337,0,30.6294-16.5448,61.2471-47.1765,126.5957l.042.0335c11.0609-.0052,29.67-2.0144,49.2292-4.6307,10.6292-20.7861,25.3179-47.5624,25.3179-53.9177.2917-5.4514-7.24-8.2825-16.3115-13.6084l26.729-8.5754A6.5609,6.5609,0,0,0,344.6792,389.7076Z" class="coloreaf5fb svgShape"></path><path fill="#ffd5b3" d="M256,400.5471s-47.1765-21.1216-47.1765-47.1765V321.92h94.353v31.451C303.1765,379.4255,256,400.5471,256,400.5471Z" class="colorffd5b3 svgShape"></path><path fill="#f4bda2" d="M208.8235,353.3706c12.92,5.9508,28.3863,9.4353,47.1765,9.4353s34.2565-3.4845,47.1765-9.4353V331.3549h-94.353Z" class="colorf4bda2 svgShape"></path><path fill="#ffd5b3" d="M204.0894,147.6381a80.0816,80.0816,0,0,0-58.4839,77.6781c.0684,8.5683.2309,16.14.54,21.273,1.9693,32.753,22.9366,98.9456,109.8549,98.9456s107.8856-66.1926,109.855-98.9456c.3084-5.13.471-12.6949.5394-21.2564a80.1166,80.1166,0,0,0-58.528-77.696c-17.6709-4.9757-34.62-11.4348-44.1065-19.4295a12.0307,12.0307,0,0,0-15.5342.0122C238.7433,136.2027,221.7812,142.66,204.0894,147.6381Z" class="colorffd5b3 svgShape"></path><circle cx="207.651" cy="195.812" r="15.664" fill="#3d3c3b" transform="rotate(-45 207.65 195.812)" class="color3d3c3b svgShape"></circle><circle cx="304.356" cy="195.812" r="15.664" fill="#3d3c3b" transform="rotate(-45 304.356 195.812)" class="color3d3c3b svgShape"></circle><path fill="#eaf5fb" d="M322.5376,247.4658c-16.8938,0-33.1292-5.5168-47.3084-14.7008-6.1972-4.0139-22.2287-10.5353-38.4943,0-14.1792,9.184-30.4146,14.7008-47.3084,14.7008H146.2048C148.4907,280.5644,169.8438,348.962,256,348.962s107.5094-68.3977,109.7954-101.4962Z" class="coloreaf5fb svgShape"></path><rect width="10" height="36.384" x="251" y="43.432" fill="#fc5953" class="colorfc5953 svgShape"></rect><rect width="36.384" height="10" x="237.808" y="56.624" fill="#fc5953" class="colorfc5953 svgShape"></rect></g></svg></g></svg>